<svg xmlns="http://www.w3.org/2000/svg" viewBox="0 0 599 352" width="599" height="352">
	<style>
		tspan { white-space:pre }
		.shp0 { fill: #cccccc } 
		.shp1 { fill: #e6e6e6 } 
		.shp2 { fill: #2f2e41 } 
		.shp3 { fill: #6c63ff } 
		.shp4 { fill: #ffb9b9 } 
		.shp5 { fill: #3f3d56 } 
		.shp6 { fill: #ffffff } 
	</style>
	<path id="Layer" class="shp0" d="M106.18 164.92L183.24 164.92L183.24 240.62L106.18 240.62L106.18 164.92Z" />
	<path id="Layer" class="shp1" d="M66.95 354.46L27.71 354.46L23.51 324.92L71.15 324.92L66.95 354.46L66.95 354.46Z" />
	<path id="Layer" class="shp1" d="M145.73 333.07L144.4 348.96C144.34 349.68 144.46 350.41 144.74 351.08C145.03 351.76 145.47 352.38 146.05 352.89C146.63 353.4 147.32 353.8 148.09 354.06C148.86 354.32 149.68 354.43 150.5 354.39L159.79 353.89C160.23 353.87 160.64 353.76 161.02 353.58C161.4 353.4 161.73 353.15 161.99 352.84C162.24 352.53 162.42 352.18 162.5 351.81C162.58 351.44 162.57 351.06 162.47 350.69L157.31 332.56L145.73 333.07Z" />
	<path id="Layer" class="shp1" d="M223.49 342.47C234.43 344.72 242.25 347.91 247.38 352.24C247.83 352.61 248.32 352.96 248.84 353.26C249.37 353.56 249.92 353.82 250.49 354.04C251.07 354.25 251.66 354.42 252.27 354.55C252.88 354.67 253.5 354.75 254.12 354.77C257.34 354.92 259.98 354.61 261.95 353.83L261.96 353.83C262.21 353.73 262.44 353.61 262.66 353.45C262.87 353.3 263.06 353.12 263.22 352.93C263.38 352.73 263.51 352.52 263.61 352.29C263.71 352.06 263.77 351.82 263.79 351.58C263.82 351.34 263.82 351.09 263.77 350.85C263.73 350.6 263.65 350.37 263.53 350.14C263.41 349.92 263.27 349.71 263.09 349.52C262.91 349.33 262.7 349.16 262.47 349.02L236.52 332.8L225.5 336.67L222.93 338.93C222.65 339.18 222.44 339.48 222.31 339.8C222.19 340.13 222.15 340.48 222.21 340.82C222.26 341.17 222.41 341.49 222.63 341.78C222.85 342.06 223.14 342.3 223.49 342.47L223.49 342.47Z" />
	<path id="Layer" class="shp2" d="M189.82 82.89L115.64 82.29C115.83 72.8 118.34 63.48 123.84 55.14C127.45 49.66 127.37 43.7 126.5 38.68C125.16 30.93 128.28 23 135.21 18.07C136.52 17.14 137.93 16.31 139.41 15.6C140.89 14.88 142.44 14.29 144.05 13.83C145.65 13.36 147.3 13.02 148.97 12.82C150.64 12.61 152.33 12.54 154.02 12.61L155.46 12.66C157.79 12.74 160.11 13.09 162.35 13.68C164.59 14.27 166.74 15.1 168.74 16.16C170.74 17.22 172.59 18.49 174.23 19.95C175.88 21.41 177.31 23.05 178.49 24.82C179.08 25.77 179.6 26.75 180.02 27.76C180.44 28.78 180.77 29.82 181.01 30.88C181.24 31.94 181.38 33.01 181.42 34.09C181.47 35.17 181.41 36.25 181.26 37.32C180.79 41.38 181.92 45.48 184.55 49.63C189.09 58.72 190.07 70.36 189.82 82.89Z" />
	<path id="Layer" class="shp3" d="M239.44 333.65L224.88 336.98L154 201.33L158.43 333.65L143.87 333.65C128.32 271.4 100.23 199.55 112.86 176.87L188.18 172.98L239.44 333.65Z" />
	<path id="Layer" class="shp4" d="M153.36 60.12C142.51 60.12 133.74 52.41 133.74 42.88C133.74 33.35 142.51 25.65 153.36 25.65C164.21 25.65 172.99 33.35 172.99 42.88C172.99 52.41 164.21 60.12 153.36 60.12Z" />
	<path id="Layer" class="shp4" d="M170.45 74.57L138.17 72.9C141.34 66.53 142.6 60.39 141.34 54.56L165.39 54.56C165.34 59.03 167.87 66.77 170.45 74.57Z" />
	<path id="Layer" class="shp3" d="M190.71 177.98L119.82 182.43L127.1 72.07L139.44 69.01L153.36 71.79L167.29 65.68L176.15 68.46L190.71 177.98L190.71 177.98Z" />
	<path id="Layer" class="shp1" d="M131.84 257.48L83.43 247.75C97.82 205.81 123.76 109.87 115.39 75.68L140.71 65.68L131.84 257.48Z" />
	<path id="Layer" class="shp1" d="M108.43 136.28L90.07 126.28L105.73 86.01C106.16 84.98 106.69 83.98 107.32 83.03C107.95 82.09 108.67 81.19 109.47 80.35C110.27 79.51 111.16 78.73 112.12 78.03C113.07 77.32 114.1 76.69 115.18 76.14L120.45 73.46L117.29 114.05L108.43 136.28Z" />
	<path id="Layer" class="shp1" d="M232.8 248.31C217.51 256.07 179.31 260.4 162.54 254.98C161.31 217.09 158.89 109.91 166.66 64.57L194.5 74.57L191.97 104.59C178.66 130.28 217.32 219.73 232.8 248.31Z" />
	<path id="Layer" class="shp1" d="M230.58 131.28L213.49 126.28L190.71 103.48L194.5 74.57L232.48 121.27L230.58 131.28L230.58 131.28Z" />
	<path id="Layer" class="shp4" d="M177.02 152.92C177.16 153.45 177.42 153.96 177.78 154.4C178.14 154.85 178.6 155.23 179.12 155.52C179.65 155.82 180.24 156.01 180.85 156.11C181.47 156.2 182.1 156.19 182.7 156.07L197.21 153.18L195.11 145.05L180.61 147.93C180 148.05 179.42 148.28 178.91 148.59C178.41 148.91 177.97 149.31 177.64 149.77C177.31 150.24 177.08 150.75 176.98 151.29C176.87 151.83 176.89 152.39 177.02 152.92L177.02 152.92Z" />
	<path id="Layer" class="shp2" d="M170.45 38.44C159.56 34.5 148.79 34.21 138.17 37.88L133.74 23.98L174.25 23.98L170.45 38.44Z" />
	<path id="Layer" class="shp1" d="M190.07 143.51L198.3 156.85C212.14 153.46 224.14 142.77 235.64 130.17L232.48 121.27L212.86 125.72L190.07 143.51Z" />
	<path id="Layer" class="shp5" d="M184.06 115.99L181.53 115.99C181.53 84.54 174.16 62.62 166.97 62.62L166.34 60.4C172.78 60.4 176.89 69.52 179.2 77.17C182.34 87.55 184.06 101.33 184.06 115.99Z" />
	<path id="Layer" class="shp5" d="M125.83 108.21L123.3 108.21C123.3 79.4 130.72 61.51 141.66 61.51L141.02 63.73C133.46 63.73 125.83 77.48 125.83 108.21Z" />
	<path id="Layer" class="shp5" d="M182.8 122.11C179.3 122.11 176.47 119.62 176.47 116.55C176.47 113.47 179.3 110.99 182.8 110.99C186.3 110.99 189.12 113.47 189.12 116.55C189.12 119.62 186.3 122.11 182.8 122.11Z" />
	<path id="Layer" class="shp5" d="M115.71 121.55L113.17 121.55C113.17 113.58 118.28 107.1 124.57 107.1L124.57 109.32C119.68 109.32 115.71 114.81 115.71 121.55Z" />
	<path id="Layer" class="shp5" d="M135.96 121.55L133.43 121.55C133.43 114.81 129.45 109.32 124.57 109.32L124.57 107.1C130.85 107.1 135.96 113.58 135.96 121.55Z" />
	<path id="Layer" class="shp5" d="M134.69 124.33C133.29 124.33 132.16 123.34 132.16 122.11C132.16 120.88 133.29 119.88 134.69 119.88C136.09 119.88 137.22 120.88 137.22 122.11C137.22 123.34 136.09 124.33 134.69 124.33Z" />
	<path id="Layer" class="shp5" d="M114.44 124.33C113.04 124.33 111.91 123.34 111.91 122.11C111.91 120.88 113.04 119.88 114.44 119.88C115.84 119.88 116.97 120.88 116.97 122.11C116.97 123.34 115.84 124.33 114.44 124.33Z" />
	<path id="Layer" class="shp3" d="M82.79 101.66L98.59 104.13L134.69 149.23L115.51 145.26L82.79 101.66L82.79 101.66Z" />
	<path id="Layer" class="shp5" d="M79.99 101.11C79.75 101.11 79.52 101.17 79.31 101.28C79.1 101.39 78.94 101.55 78.82 101.73C78.71 101.92 78.66 102.13 78.67 102.34C78.68 102.55 78.76 102.76 78.89 102.93L112.64 147.91C112.68 147.97 112.74 148.03 112.8 148.08C112.85 148.14 112.92 148.19 112.99 148.23C113.06 148.27 113.13 148.31 113.21 148.34C113.29 148.37 113.37 148.39 113.45 148.41L129.15 151.65C129.42 151.71 129.69 151.69 129.95 151.6C130.2 151.52 130.42 151.37 130.57 151.17C130.72 150.97 130.8 150.74 130.8 150.5C130.8 150.26 130.71 150.03 130.56 149.83L93.5 103.55C93.45 103.49 93.4 103.43 93.33 103.38C93.27 103.32 93.2 103.28 93.13 103.24C93.05 103.19 92.97 103.16 92.89 103.13C92.81 103.1 92.73 103.08 92.64 103.07L80.24 101.13C80.22 101.12 80.2 101.12 80.18 101.12C80.16 101.11 80.14 101.11 80.12 101.11C80.1 101.11 80.08 101.11 80.05 101.11C80.03 101.11 80.01 101.11 79.99 101.11L79.99 101.11Z" />
	<path id="Layer" class="shp4" d="M101.04 133.26L101.98 141.56L116.78 140.27C118.04 140.16 119.19 139.62 119.99 138.76C120.78 137.91 121.16 136.81 121.04 135.71C120.91 134.61 120.3 133.6 119.32 132.9C118.35 132.2 117.1 131.86 115.84 131.97L101.04 133.26Z" />
	<path id="Layer" class="shp1" d="M88.17 132.3C88.18 133.7 88.51 135.09 89.12 136.38C89.74 137.67 90.64 138.85 91.77 139.83C92.9 140.82 94.24 141.61 95.72 142.14C97.19 142.68 98.77 142.95 100.37 142.95L102.8 142.95L104.57 129.99L89.9 125.35L88.17 132.3Z" />
	<path id="Layer" class="shp1" d="M310.05 0L598.69 0L598.69 133.54L310.05 133.54L310.05 0Z" />
	<path id="Layer" class="shp6" d="M318.46 126.15L590.28 126.15L590.28 7.38L318.46 7.38L318.46 126.15Z" />
	<path id="Layer" class="shp5" d="M339.47 24.62L436.15 24.62L436.15 109.54L339.47 109.54L339.47 24.62Z" />
	<path id="Layer" class="shp3" d="M413.03 63.38C411.48 63.38 410.23 62.28 410.23 60.92C410.23 59.56 411.48 58.46 413.03 58.46C414.58 58.46 415.84 59.56 415.84 60.92C415.84 62.28 414.58 63.38 413.03 63.38Z" />
	<path id="Layer" class="shp3" d="M402.53 54.77C400.98 54.77 399.72 53.67 399.72 52.31C399.72 50.95 400.98 49.85 402.53 49.85C404.08 49.85 405.33 50.95 405.33 52.31C405.33 53.67 404.08 54.77 402.53 54.77Z" />
	<path id="Layer" class="shp3" d="M401.12 60.92C400.87 60.92 400.61 60.94 400.36 60.97C400.1 61 399.85 61.05 399.61 61.11C399.36 61.17 399.12 61.25 398.88 61.34C398.65 61.43 398.42 61.53 398.2 61.65C398.01 61.39 397.81 61.14 397.6 60.9C397.39 60.66 397.17 60.42 396.95 60.18C396.72 59.95 396.49 59.72 396.24 59.5C396 59.28 395.75 59.07 395.5 58.86C395.51 58.73 395.52 58.6 395.52 58.46C395.52 57.5 395.2 56.55 394.59 55.75C393.98 54.94 393.12 54.31 392.11 53.93C391.1 53.55 389.98 53.44 388.9 53.62C387.82 53.8 386.82 54.25 386.03 54.92C385.65 54.87 385.28 54.84 384.9 54.81C384.52 54.79 384.15 54.77 383.77 54.77C383.39 54.77 383.01 54.78 382.63 54.79C382.25 54.81 381.88 54.84 381.5 54.88C381.5 54.85 381.51 54.81 381.51 54.77C381.51 53.09 380.54 51.53 378.94 50.63C377.34 49.72 375.32 49.59 373.59 50.28C371.85 50.97 370.63 52.39 370.36 54.05C370.08 55.71 370.78 57.37 372.22 58.47C371.98 58.65 371.76 58.83 371.53 59.02C371.31 59.2 371.09 59.4 370.88 59.59C370.67 59.79 370.46 59.99 370.26 60.2C370.06 60.41 369.87 60.62 369.68 60.83C368.28 59.81 366.39 59.44 364.63 59.86C362.86 60.28 361.45 61.43 360.82 62.94C360.2 64.45 360.46 66.13 361.51 67.44C362.56 68.76 364.27 69.54 366.1 69.54L366.11 69.54C366.1 69.74 366.1 69.95 366.1 70.15C366.1 70.46 366.11 70.77 366.13 71.08C366.15 71.39 366.18 71.7 366.22 72.01C366.26 72.31 366.32 72.62 366.38 72.92C366.44 73.23 366.52 73.53 366.6 73.83C363.22 74.95 360.72 77.52 360.01 80.63C359.29 83.75 360.45 86.97 363.07 89.16C365.69 91.35 369.41 92.19 372.92 91.4C376.42 90.61 379.22 88.29 380.31 85.26C381.28 85.43 382.26 85.52 383.24 85.54C384.22 85.55 385.21 85.5 386.18 85.37C387.15 85.25 388.11 85.05 389.05 84.78C389.98 84.51 390.89 84.17 391.76 83.77C392.49 85.28 394.02 86.37 395.85 86.68C397.68 86.99 399.57 86.48 400.88 85.33C402.2 84.17 402.78 82.51 402.42 80.91C402.07 79.3 400.83 77.95 399.11 77.31C399.41 76.81 399.68 76.29 399.92 75.76C400.16 75.23 400.36 74.69 400.53 74.14C400.69 73.59 400.83 73.03 400.92 72.47C401.02 71.91 401.08 71.34 401.11 70.77L401.12 70.77C402.61 70.77 404.04 70.25 405.09 69.33C406.14 68.4 406.73 67.15 406.73 65.85C406.73 64.54 406.14 63.29 405.09 62.37C404.04 61.44 402.61 60.92 401.12 60.92L401.12 60.92Z" />
	<path id="Layer" class="shp1" d="M371.7 22.77L399.72 22.77L399.72 26.46L371.7 26.46L371.7 22.77Z" />
	<path id="Layer" class="shp5" d="M462.78 24.62L559.46 24.62L559.46 109.54L462.78 109.54L462.78 24.62Z" />
	<path id="Layer" class="shp3" d="M529.47 82.22C528.77 82.22 528.21 81.72 528.21 81.11C528.21 80.5 528.77 80 529.47 80C530.17 80 530.73 80.5 530.73 81.11C530.73 81.72 530.17 82.22 529.47 82.22Z" />
	<path id="Layer" class="shp3" d="M524.74 78.34C524.05 78.34 523.48 77.84 523.48 77.23C523.48 76.62 524.05 76.12 524.74 76.12C525.44 76.12 526 76.62 526 77.23C526 77.84 525.44 78.34 524.74 78.34Z" />
	<path id="Layer" class="shp3" d="M524.11 81.11C524 81.11 523.88 81.11 523.77 81.13C523.65 81.14 523.54 81.16 523.43 81.19C523.32 81.22 523.21 81.25 523.1 81.29C523 81.33 522.9 81.38 522.8 81.43C522.71 81.32 522.62 81.21 522.53 81.1C522.43 80.99 522.33 80.88 522.23 80.77C522.13 80.67 522.02 80.57 521.92 80.47C521.81 80.37 521.69 80.27 521.58 80.18C521.59 80.12 521.59 80.06 521.59 80C521.59 79.57 521.45 79.14 521.17 78.78C520.9 78.41 520.51 78.13 520.06 77.96C519.6 77.79 519.1 77.74 518.61 77.82C518.12 77.9 517.68 78.1 517.32 78.41C517.15 78.38 516.98 78.37 516.81 78.36C516.64 78.35 516.47 78.34 516.3 78.34C516.13 78.34 515.96 78.34 515.79 78.35C515.62 78.36 515.45 78.37 515.28 78.39C515.28 78.37 515.28 78.36 515.28 78.34C515.29 77.58 514.85 76.88 514.13 76.47C513.41 76.07 512.5 76.01 511.72 76.32C510.94 76.63 510.39 77.27 510.27 78.01C510.14 78.76 510.46 79.51 511.1 80.01C511 80.08 510.9 80.17 510.8 80.25C510.69 80.33 510.6 80.42 510.5 80.51C510.41 80.6 510.31 80.69 510.22 80.78C510.13 80.87 510.05 80.97 509.96 81.07C509.33 80.6 508.48 80.44 507.69 80.63C506.9 80.82 506.26 81.34 505.98 82.02C505.7 82.7 505.81 83.45 506.28 84.04C506.76 84.63 507.53 84.98 508.35 84.98L508.36 84.98C508.35 85.08 508.35 85.17 508.35 85.26C508.35 85.4 508.35 85.54 508.36 85.68C508.37 85.82 508.39 85.96 508.41 86.09C508.43 86.23 508.45 86.37 508.48 86.51C508.51 86.64 508.54 86.78 508.58 86.92C507.05 87.42 505.93 88.58 505.61 89.98C505.29 91.38 505.81 92.83 506.99 93.81C508.17 94.8 509.84 95.18 511.42 94.82C513 94.47 514.25 93.42 514.75 92.06C515.18 92.13 515.62 92.17 516.06 92.18C516.51 92.19 516.95 92.17 517.39 92.11C517.83 92.05 518.26 91.96 518.68 91.84C519.1 91.72 519.51 91.57 519.9 91.39C520.23 92.07 520.92 92.56 521.74 92.7C522.56 92.84 523.41 92.61 524 92.09C524.6 91.57 524.86 90.82 524.7 90.1C524.54 89.38 523.98 88.77 523.21 88.48C523.34 88.26 523.46 88.02 523.57 87.78C523.68 87.55 523.77 87.3 523.84 87.06C523.92 86.81 523.98 86.56 524.02 86.3C524.07 86.05 524.09 85.79 524.1 85.54L524.11 85.54C524.78 85.54 525.42 85.31 525.9 84.89C526.37 84.47 526.63 83.91 526.63 83.32C526.63 82.74 526.37 82.17 525.9 81.76C525.42 81.34 524.78 81.11 524.11 81.11L524.11 81.11Z" />
	<path id="Layer" class="shp3" d="M539.37 61.19C538.67 61.19 538.1 60.7 538.1 60.09C538.1 59.47 538.67 58.98 539.37 58.98C540.06 58.98 540.63 59.47 540.63 60.09C540.63 60.7 540.06 61.19 539.37 61.19Z" />
	<path id="Layer" class="shp3" d="M542.33 56.15C541.63 56.15 541.07 55.65 541.07 55.04C541.07 54.43 541.63 53.93 542.33 53.93C543.03 53.93 543.59 54.43 543.59 55.04C543.59 55.65 543.03 56.15 542.33 56.15Z" />
	<path id="Layer" class="shp3" d="M537.91 55.56C537.88 55.46 537.84 55.36 537.8 55.27C537.75 55.18 537.7 55.09 537.64 55C537.58 54.91 537.51 54.83 537.44 54.75C537.36 54.68 537.28 54.6 537.2 54.53C537.3 54.43 537.4 54.32 537.49 54.21C537.59 54.1 537.68 53.99 537.77 53.88C537.85 53.76 537.94 53.64 538.02 53.53C538.1 53.41 538.17 53.29 538.24 53.16C538.31 53.15 538.38 53.14 538.44 53.12C538.92 53.01 539.35 52.77 539.67 52.44C539.99 52.11 540.2 51.7 540.26 51.27C540.32 50.84 540.24 50.4 540.02 50.01C539.8 49.62 539.46 49.3 539.03 49.08C539.01 48.93 538.98 48.78 538.95 48.64C538.91 48.49 538.87 48.35 538.83 48.2C538.78 48.06 538.73 47.91 538.68 47.77C538.62 47.63 538.56 47.49 538.5 47.35C538.52 47.35 538.53 47.35 538.55 47.34C539.38 47.14 540.03 46.58 540.28 45.86C540.54 45.14 540.35 44.36 539.8 43.78C539.25 43.2 538.4 42.91 537.55 43.01C536.7 43.11 535.96 43.58 535.59 44.26C535.48 44.19 535.36 44.13 535.24 44.06C535.12 44 535 43.94 534.88 43.89C534.76 43.83 534.63 43.78 534.5 43.72C534.38 43.67 534.25 43.63 534.12 43.58C534.46 42.92 534.4 42.16 533.98 41.54C533.56 40.92 532.82 40.52 532 40.47C531.18 40.42 530.38 40.72 529.86 41.28C529.34 41.84 529.17 42.58 529.39 43.28L529.39 43.29C529.29 43.31 529.19 43.33 529.09 43.35C528.93 43.39 528.78 43.43 528.63 43.48C528.48 43.53 528.34 43.57 528.19 43.63C528.04 43.68 527.9 43.74 527.76 43.8C527.61 43.86 527.47 43.93 527.34 44C526.37 42.84 524.8 42.21 523.18 42.32C521.55 42.42 520.11 43.26 519.35 44.52C518.59 45.79 518.62 47.31 519.44 48.54C520.26 49.78 521.74 50.56 523.37 50.61C523.41 50.99 523.48 51.38 523.59 51.75C523.71 52.13 523.85 52.5 524.03 52.85C524.21 53.21 524.43 53.55 524.68 53.87C524.92 54.19 525.2 54.5 525.5 54.78C524.85 55.24 524.5 55.96 524.57 56.69C524.64 57.43 525.12 58.08 525.85 58.44C526.58 58.8 527.47 58.82 528.22 58.49C528.97 58.16 529.48 57.52 529.58 56.79C529.87 56.84 530.16 56.88 530.45 56.91C530.74 56.93 531.03 56.94 531.32 56.94C531.61 56.94 531.91 56.92 532.19 56.89C532.48 56.86 532.77 56.81 533.06 56.75L533.06 56.76C533.24 57.32 533.67 57.8 534.25 58.09C534.83 58.38 535.52 58.45 536.17 58.29C536.81 58.13 537.36 57.75 537.69 57.24C538.01 56.73 538.09 56.12 537.91 55.56L537.91 55.56Z" />
	<path id="Layer" class="shp3" d="M490.52 46.14C489.83 46.14 489.26 45.65 489.26 45.03C489.26 44.42 489.83 43.93 490.52 43.93C491.22 43.93 491.78 44.42 491.78 45.03C491.78 45.65 491.22 46.14 490.52 46.14Z" />
	<path id="Layer" class="shp3" d="M484.07 46.6C483.38 46.6 482.81 46.1 482.81 45.49C482.81 44.88 483.38 44.38 484.07 44.38C484.77 44.38 485.34 44.88 485.34 45.49C485.34 46.1 484.77 46.6 484.07 46.6Z" />
	<path id="Layer" class="shp3" d="M486.91 48.51C486.83 48.59 486.76 48.67 486.69 48.75C486.63 48.83 486.57 48.92 486.52 49.01C486.47 49.1 486.42 49.19 486.39 49.29C486.35 49.39 486.32 49.48 486.3 49.58C486.14 49.56 485.99 49.55 485.83 49.53C485.67 49.52 485.52 49.51 485.36 49.51C485.2 49.5 485.05 49.5 484.89 49.51C484.73 49.51 484.58 49.52 484.42 49.53C484.37 49.48 484.33 49.44 484.28 49.4C483.91 49.11 483.46 48.92 482.97 48.85C482.48 48.78 481.98 48.84 481.53 49.02C481.08 49.2 480.7 49.5 480.44 49.86C480.18 50.23 480.04 50.66 480.06 51.1C479.93 51.19 479.8 51.29 479.67 51.39C479.55 51.5 479.43 51.6 479.31 51.71C479.2 51.82 479.09 51.93 478.98 52.05C478.87 52.17 478.77 52.29 478.67 52.41C478.66 52.4 478.64 52.38 478.63 52.37C478 51.86 477.11 51.67 476.28 51.86C475.45 52.06 474.79 52.6 474.53 53.32C474.26 54.04 474.43 54.82 474.97 55.41C475.52 55.99 476.36 56.29 477.21 56.21C477.21 56.33 477.21 56.45 477.21 56.57C477.21 56.69 477.22 56.82 477.23 56.94C477.24 57.06 477.25 57.18 477.27 57.3C477.29 57.42 477.31 57.54 477.33 57.66C476.52 57.76 475.81 58.2 475.44 58.84C475.06 59.49 475.06 60.25 475.45 60.89C475.83 61.53 476.54 61.96 477.36 62.05C478.17 62.15 478.99 61.88 479.54 61.35L479.55 61.35C479.62 61.41 479.7 61.48 479.77 61.54C479.89 61.63 480.01 61.72 480.13 61.81C480.26 61.9 480.38 61.98 480.51 62.06C480.64 62.14 480.77 62.22 480.91 62.29C481.04 62.37 481.18 62.44 481.32 62.51C480.71 63.83 480.93 65.34 481.89 66.5C482.85 67.65 484.42 68.29 486.05 68.19C487.67 68.08 489.12 67.26 489.88 65.99C490.65 64.73 490.62 63.21 489.8 61.97C490.16 61.74 490.49 61.48 490.8 61.2C491.1 60.92 491.38 60.61 491.63 60.29C491.87 59.97 492.09 59.63 492.27 59.27C492.45 58.92 492.6 58.55 492.71 58.18C493.5 58.42 494.38 58.3 495.05 57.87C495.73 57.43 496.11 56.72 496.07 55.99C496.03 55.25 495.58 54.58 494.86 54.2C494.15 53.81 493.26 53.77 492.5 54.07C492.4 53.83 492.29 53.59 492.16 53.36C492.03 53.14 491.89 52.91 491.73 52.7C491.57 52.48 491.4 52.27 491.22 52.07C491.03 51.87 490.84 51.68 490.63 51.5L490.63 51.5C491.09 51.07 491.32 50.49 491.29 49.9C491.26 49.32 490.97 48.76 490.47 48.37C489.98 47.97 489.33 47.76 488.66 47.79C487.99 47.82 487.36 48.08 486.91 48.51L486.91 48.51Z" />
	<path id="Layer" class="shp1" d="M495 22.77L523.03 22.77L523.03 26.46L495 26.46L495 22.77Z" />
	<path id="Layer" class="shp1" d="M17.64 314C27.74 325.88 48.71 327.13 48.71 327.13C48.71 327.13 53.3 309.11 43.2 297.23C33.1 285.35 12.13 284.1 12.13 284.1C12.13 284.1 7.54 302.11 17.64 314Z" />
	<path id="Layer" class="shp1" d="M69.1 318.46C62.43 326.3 48.6 327.13 48.6 327.13C48.6 327.13 45.57 315.24 52.23 307.4C58.9 299.56 72.74 298.73 72.74 298.73C72.74 298.73 75.77 310.62 69.1 318.46Z" />
	<path id="Layer" class="shp5" d="M0 354.25L363.99 354.25L363.99 355.63L0 355.63L0 354.25Z" />
</svg>