<svg xmlns="http://www.w3.org/2000/svg" viewBox="0 0 434 127" width="434" height="127">
	<style>
		tspan { white-space:pre }
	</style>
	<path id="DOCMEET " fill="#ffffff" d="M9.32 17.91L31.82 17.91Q61.85 17.98 61.85 64.49Q61.81 110.85 32.61 111L9.32 111Q1.83 111.07 1.83 99.35L1.83 29.55Q1.83 17.98 9.32 17.91ZM31.86 41.27L16.87 41.27L16.87 87.64L31.91 87.64Q46.81 87.85 46.72 64.27Q46.81 41.35 31.86 41.27ZM98.35 17.91Q105.95 17.91 113.12 23.95Q120.28 29.99 124.36 41.2Q128.44 52.41 128.44 64.56Q128.44 76.65 124.45 87.78Q120.52 98.84 113.35 105.03Q106.18 111.15 98.35 111.15Q90.58 111.15 83.41 105.03Q76.28 98.84 72.3 87.78Q68.37 76.65 68.37 64.56Q68.37 52.41 72.35 41.2Q76.38 29.99 83.55 23.95Q90.76 17.91 98.35 17.91ZM98.45 41.13Q94.61 41.13 91 44.11Q87.44 47.1 85.42 52.7Q83.41 58.3 83.41 64.42Q83.41 70.53 85.38 76.06Q87.39 81.6 90.95 84.65Q94.51 87.71 98.45 87.71Q102.34 87.71 105.9 84.65Q109.51 81.6 111.48 76.06Q113.44 70.53 113.44 64.42Q113.44 58.3 111.43 52.7Q109.41 47.1 105.81 44.11Q102.2 41.13 98.45 41.13ZM165.03 17.91L165.13 17.91L180.17 17.98Q187.62 18.13 187.67 29.48Q187.62 41.27 180.12 41.2L165.17 41.27Q150.23 41.05 150.23 64.49Q150.23 87.64 165.22 87.78L180.12 87.78Q187.62 88 187.62 99.28Q187.62 110.93 180.22 111L165.22 111Q135.23 111 135.19 64.42Q135.19 17.91 165.03 17.91ZM201.82 17.91Q205.61 18.05 207.39 20.89Q209.22 23.73 224.4 47.24Q239.4 23.95 241.27 20.97Q243.15 17.91 246.85 17.91Q254.3 17.98 254.35 29.48L254.39 99.35Q254.39 111 246.8 111.15Q239.4 111.07 239.26 99.35L239.26 58.23Q231.71 70.24 229.84 73.22Q228.01 76.14 224.31 76.14Q220.7 76.14 218.78 73.15Q216.86 70.1 209.36 58.45L209.36 99.35Q209.31 110.93 201.86 111Q194.32 111.07 194.37 99.35L194.37 29.48Q194.37 17.91 201.82 17.91ZM268.59 17.76L306.55 17.91Q313.53 18.05 313.57 29.19Q313.57 41.05 305.98 41.27L276.13 41.27L276.13 87.64L305.94 87.64Q313.48 87.71 313.48 99.43Q313.48 110.85 306.08 111L268.59 111Q261.14 111 261.09 99.72L261.09 29.55Q261.14 17.98 268.59 17.76ZM279.74 64.71Q279.79 53.06 287.15 52.92L302.23 52.92Q309.73 52.99 309.83 64.56Q309.69 76.21 302.23 76.21L287.19 76.21Q279.74 76.28 279.74 64.71ZM327.73 17.76L365.68 17.91Q372.66 18.05 372.71 29.19Q372.71 41.05 365.12 41.27L335.27 41.27L335.27 87.64L365.07 87.64Q372.62 87.71 372.62 99.43Q372.62 110.85 365.21 111L327.73 111Q320.28 111 320.23 99.72L320.23 29.55Q320.28 17.98 327.73 17.76ZM338.88 64.71Q338.92 53.06 346.28 52.92L361.37 52.92Q368.87 52.99 368.96 64.56Q368.82 76.21 361.37 76.21L346.33 76.21Q338.88 76.28 338.88 64.71ZM386.25 17.76L424.21 17.91Q431.19 18.05 431.24 29.19Q431.24 41.05 423.64 41.27L412.45 41.27L412.49 99.43Q412.4 110.85 404.95 111Q397.45 111 397.45 99.72L397.5 41.27L386.25 41.27Q378.75 41.27 378.75 29.55Q378.8 17.98 386.25 17.76Z" />
</svg>